<svg width="56" height="53" viewBox="0 0 56 53" fill="none" xmlns="http://www.w3.org/2000/svg">
<path d="M28.0759 0.883195C28.9911 4.27952 31.3115 6.30197 33.6252 8.29652C37.3985 11.5499 41.5018 14.3778 45.2104 17.7149C48.9394 21.0728 52.4133 24.6784 54.3322 29.473C56.554 35.0242 56.8636 40.5511 53.451 45.806C47.8234 54.4677 35.3808 54.9628 29.083 46.7963C28.7733 46.3953 28.4773 45.9908 28.1167 45.5096C27.3852 46.4127 26.7693 47.3403 25.9732 48.1109C21.4412 52.501 16.1266 53.8051 10.2881 51.7164C4.43251 49.6242 1.0301 45.1679 0.26116 38.8495C-0.405713 33.354 1.5813 28.5977 4.77276 24.3087C7.83152 20.1941 11.7137 16.9652 15.6741 13.8269C18.2565 11.78 20.9172 9.83428 23.3635 7.61307C25.3641 5.79635 27.3001 3.9099 28.0827 0.876221L28.0759 0.883195ZM28.035 36.4644C28.5352 37.9149 29.0694 39.1145 29.8077 40.2024C32.482 44.1392 35.9048 46.6289 40.8485 46.2453C45.4384 45.8897 48.674 42.9432 49.4974 38.3125C50.0418 35.2439 49.3715 32.4195 47.8711 29.7659C45.9657 26.394 43.2132 23.8275 40.2735 21.4424C36.3573 18.2693 32.0363 15.6366 28.3991 12.0973C28.0282 11.7382 27.8547 11.9334 27.5961 12.188C26.4903 13.2794 25.2859 14.2453 24.0712 15.2077C20.645 17.9171 16.9568 20.2673 13.7109 23.2208C10.8699 25.8047 8.33168 28.6187 7.02856 32.3811C5.50428 36.7852 6.68831 41.5693 9.9206 44.0834C13.6326 46.9706 18.6206 47.0613 22.3904 44.2508C24.9865 42.3155 26.8578 39.7909 28.035 36.4574V36.4644Z" fill="#F14C90"/>
</svg>
