<svg width="131" height="118" viewBox="0 0 131 118" fill="none" xmlns="http://www.w3.org/2000/svg">
<path d="M65.464 0.0158824C67.6082 7.75062 73.0443 12.3565 78.4646 16.8989C87.3044 24.3081 96.9173 30.7484 105.606 38.3481C114.342 45.9955 122.48 54.2067 126.976 65.1259C132.181 77.7683 132.906 90.3551 124.911 102.323C111.727 122.049 82.5776 123.176 67.8234 104.578C67.098 103.665 66.4045 102.743 65.5596 101.648C63.8459 103.704 62.4031 105.817 60.5379 107.572C49.9206 117.57 37.47 120.54 23.7919 115.783C10.0739 111.018 2.10297 100.869 0.301541 86.4798C-1.26076 73.9645 3.39427 63.1326 10.871 53.365C18.0369 43.9943 27.1317 36.6408 36.4099 29.4937C42.4598 24.8322 48.6931 20.401 54.4242 15.3424C59.1111 11.2051 63.6466 6.90886 65.4799 0L65.464 0.0158824ZM65.3683 81.048C66.5401 84.3516 67.7915 87.0833 69.5212 89.561C75.7863 98.5266 83.8051 104.197 95.3869 103.323C106.14 102.513 113.72 95.8028 115.649 85.2569C116.924 78.2686 115.354 71.8362 111.839 65.793C107.375 58.1138 100.927 52.2691 94.0398 46.8373C84.8652 39.6108 74.7422 33.6152 66.2212 25.5548C65.3524 24.7369 64.9459 25.1816 64.3401 25.7613C61.7495 28.2469 58.9278 30.4466 56.0822 32.6384C48.0555 38.8087 39.415 44.1611 31.8107 50.8873C25.1549 56.7717 19.2086 63.1803 16.1558 71.7489C12.5848 81.7786 15.3587 92.674 22.931 98.3996C31.6273 104.975 43.3127 105.181 52.1445 98.7808C58.2264 94.3734 62.6104 88.6239 65.3683 81.0321V81.048Z" fill="#F14C90"/>
</svg>
