<svg width="540" height="118" viewBox="0 0 540 118" fill="none" xmlns="http://www.w3.org/2000/svg">
<path d="M65.464 0.0158824C67.6082 7.75062 73.0443 12.3565 78.4646 16.8989C87.3044 24.3081 96.9173 30.7484 105.606 38.3481C114.342 45.9955 122.48 54.2067 126.976 65.1259C132.181 77.7683 132.906 90.3551 124.911 102.323C111.727 122.049 82.5776 123.176 67.8234 104.578C67.098 103.665 66.4046 102.743 65.5596 101.648C63.8459 103.704 62.4031 105.817 60.5379 107.572C49.9206 117.57 37.47 120.54 23.7919 115.783C10.0739 111.018 2.10297 100.869 0.301541 86.4798C-1.26076 73.9645 3.39427 63.1326 10.871 53.365C18.0369 43.9943 27.1317 36.6408 36.4099 29.4937C42.4598 24.8322 48.6931 20.401 54.4242 15.3424C59.1111 11.2051 63.6466 6.90886 65.4799 0L65.464 0.0158824ZM65.3683 81.048C66.5401 84.3516 67.7915 87.0833 69.5212 89.561C75.7863 98.5266 83.8051 104.197 95.3869 103.323C106.14 102.513 113.72 95.8028 115.649 85.2569C116.924 78.2686 115.354 71.8362 111.839 65.793C107.375 58.1138 100.927 52.2691 94.0398 46.8373C84.8652 39.6108 74.7422 33.6152 66.2212 25.5548C65.3524 24.7369 64.9459 25.1816 64.3401 25.7613C61.7495 28.2469 58.9278 30.4466 56.0822 32.6384C48.0554 38.8087 39.415 44.1611 31.8107 50.8873C25.1549 56.7717 19.2086 63.1803 16.1558 71.7489C12.5848 81.7786 15.3587 92.674 22.931 98.3996C31.6273 104.975 43.3127 105.181 52.1445 98.7808C58.2264 94.3734 62.6104 88.6239 65.3683 81.0321V81.048Z" fill="#F14C90"/>
<path d="M181.534 25.8824V72.9659H211.367V82.6065H171.892V25.8745H181.534V25.8824Z" fill="#727272"/>
<path d="M219.635 45.4898C223.956 41.1698 229.19 39.0098 235.322 39.0098C241.454 39.0098 246.68 41.1698 251.009 45.4898C255.329 49.8098 257.498 55.0272 257.498 61.134C257.498 67.2408 255.337 72.4661 251.009 76.8179C246.688 81.1697 241.454 83.3455 235.322 83.3455C229.19 83.3455 223.956 81.1697 219.635 76.8179C215.314 72.4661 213.154 67.2408 213.154 61.134C213.154 55.0272 215.314 49.8178 219.635 45.4898ZM226.482 70.0123C228.944 72.474 231.883 73.697 235.314 73.697C238.745 73.697 241.692 72.4661 244.146 70.0123C246.608 67.5584 247.831 64.5963 247.831 61.1419C247.831 57.6875 246.6 54.7413 244.146 52.3113C241.684 49.8813 238.745 48.6663 235.314 48.6663C231.883 48.6663 228.936 49.8813 226.482 52.3113C224.019 54.7413 222.796 57.6875 222.796 61.1419C222.796 64.5963 224.027 67.5584 226.482 70.0123Z" fill="#727272"/>
<path d="M292.993 39.7407H303.454L285.543 82.6153H275.003L257.172 39.7407H267.632L280.277 70.2112L293.001 39.7407H292.993Z" fill="#727272"/>
<path d="M346.9 65.994H313.748C314.669 68.2652 316.178 70.1155 318.291 71.5449C320.396 72.9743 322.723 73.697 325.264 73.697C328.449 73.697 331.237 72.617 333.612 70.457L342.206 75.4043C340.149 77.8899 337.655 79.8355 334.708 81.2411C331.761 82.6467 328.616 83.3455 325.264 83.3455C319.157 83.3455 313.946 81.1697 309.617 76.8179C305.297 72.4661 303.136 67.2408 303.136 61.134C303.136 55.0272 305.297 49.8178 309.617 45.4898C313.938 41.1698 319.157 39.0098 325.264 39.0098C328.616 39.0098 331.761 39.7086 334.708 41.1142C337.655 42.5198 340.149 44.4336 342.206 46.8716C344.581 49.6828 346.154 52.8434 346.908 56.3534C347.289 57.9178 347.472 59.5299 347.472 61.1737C347.472 62.8175 347.281 64.4296 346.908 65.994H346.9ZM325.256 48.6504C322.715 48.6504 320.396 49.3492 318.283 50.7548C316.178 52.1604 314.661 54.0266 313.74 56.3454H336.845C336.138 54.6142 335.058 53.1054 333.604 51.811C331.229 49.7066 328.441 48.6504 325.256 48.6504Z" fill="#727272"/>
<path d="M393.507 30.7428C396.748 33.9828 398.368 37.8899 398.368 42.4561C398.368 47.0223 396.748 50.9135 393.507 54.1297C390.267 57.3459 386.375 58.95 381.832 58.95H362.706V82.6148H353.063V25.8828H381.84C386.383 25.8828 390.267 27.5028 393.515 30.7428H393.507ZM362.706 35.5234V49.3015H381.832C383.722 49.3015 385.342 48.6264 386.693 47.2764C388.043 45.9264 388.718 44.3064 388.718 42.4164C388.718 40.5264 388.043 38.9064 386.693 37.5564C385.342 36.2064 383.722 35.5314 381.832 35.5314H362.706V35.5234Z" fill="white"/>
<path d="M412.069 45.4902C417.041 41.7657 423.419 39.8995 431.195 39.8995V49.5481C428.653 49.5481 426.342 49.7943 424.261 50.2787C422.18 50.7631 420.504 51.4302 419.234 52.264C417.963 53.1058 416.883 53.9396 415.993 54.7734C415.103 55.6152 414.428 56.5285 413.968 57.529C413.507 58.5296 413.181 59.3158 412.999 59.8796C412.808 60.4435 412.689 60.9755 412.633 61.4599V82.6153H402.991V39.7407L412.069 45.4981V45.4902Z" fill="white"/>
<path d="M440.925 36.6585C439.463 36.8729 438.129 36.5473 436.914 35.6896C435.698 34.8241 434.968 33.6488 434.721 32.1637C434.475 30.6787 434.801 29.3287 435.69 28.1137C436.58 26.8987 437.756 26.184 439.217 25.9617C440.186 25.8028 441.123 25.8981 442.013 26.2475C442.902 26.5969 443.657 27.137 444.284 27.8675C444.904 28.5981 445.301 29.4478 445.46 30.4167C445.619 31.3855 445.523 32.3226 445.174 33.212C444.824 34.1014 444.268 34.8638 443.514 35.4832C442.759 36.1026 441.894 36.4996 440.917 36.6585H440.925ZM435.254 82.6143V45.902L444.904 39.7397V82.6143H435.254Z" fill="white"/>
<path d="M484.617 39.7407H495.078L477.167 82.6153H466.627L448.796 39.7407H459.256L471.901 70.2112L484.625 39.7407H484.617Z" fill="white"/>
<path d="M538.524 65.994H505.372C506.293 68.2652 507.802 70.1155 509.907 71.5449C512.012 72.9743 514.339 73.697 516.88 73.697C520.065 73.697 522.853 72.617 525.228 70.457L533.822 75.4043C531.765 77.8899 529.271 79.8355 526.324 81.2411C523.378 82.6467 520.232 83.3455 516.88 83.3455C510.773 83.3455 505.562 81.1697 501.234 76.8179C496.913 72.4661 494.744 67.2408 494.744 61.134C494.744 55.0272 496.905 49.8178 501.234 45.4898C505.562 41.1618 510.773 39.0098 516.88 39.0098C520.232 39.0098 523.378 39.7086 526.324 41.1142C529.271 42.5198 531.765 44.4336 533.822 46.8716C536.197 49.6828 537.77 52.8434 538.524 56.3534C538.897 57.9178 539.088 59.5299 539.088 61.1737C539.088 62.8175 538.897 64.4296 538.524 65.994ZM516.88 48.6504C514.339 48.6504 512.02 49.3492 509.907 50.7548C507.802 52.1604 506.285 54.0266 505.372 56.3454H528.477C527.778 54.6142 526.69 53.1054 525.236 51.811C522.853 49.7066 520.073 48.6504 516.888 48.6504H516.88Z" fill="white"/>
<path d="M185.863 112.776L185.847 101.063L180.113 110.958H179.62L173.886 101.103V112.776H172.909V99.0854H173.751L179.874 109.663L185.998 99.0854H186.816L186.832 112.776H185.855H185.863Z" fill="#606060"/>
<path d="M192.535 107.669C192.535 104.636 194.703 102.484 197.642 102.484C200.581 102.484 202.749 104.636 202.749 107.669C202.749 110.703 200.581 112.855 197.642 112.855C194.703 112.855 192.535 110.703 192.535 107.669ZM201.748 107.669C201.748 105.104 199.985 103.365 197.642 103.365C195.299 103.365 193.536 105.104 193.536 107.669C193.536 110.235 195.299 111.974 197.642 111.974C199.985 111.974 201.748 110.235 201.748 107.669Z" fill="#606060"/>
<path d="M224.909 106.812V112.776H223.932V106.891C223.932 104.581 222.741 103.374 220.747 103.374C218.436 103.374 217.014 104.922 217.014 107.344V112.784H216.037V106.899C216.037 104.589 214.846 103.381 212.852 103.381C210.541 103.381 209.119 104.93 209.119 107.352V112.792H208.142V102.579H209.08V104.771C209.747 103.342 211.137 102.5 212.987 102.5C214.838 102.5 216.172 103.342 216.72 104.962C217.388 103.477 218.873 102.5 220.851 102.5C223.313 102.5 224.917 103.969 224.917 106.82L224.909 106.812Z" fill="#606060"/>
<path d="M239.929 107.907H231.144C231.239 110.329 233.019 111.973 235.465 111.973C236.752 111.973 237.951 111.505 238.729 110.544L239.293 111.187C238.396 112.283 236.982 112.847 235.441 112.847C232.351 112.847 230.183 110.695 230.183 107.661C230.183 104.628 232.272 102.476 235.076 102.476C237.879 102.476 239.944 104.588 239.944 107.621C239.944 107.701 239.929 107.796 239.929 107.899V107.907ZM231.168 107.145H238.991C238.856 104.937 237.252 103.349 235.076 103.349C232.899 103.349 231.319 104.914 231.168 107.145Z" fill="#606060"/>
<path d="M254.464 106.812V112.776H253.487V106.892C253.487 104.581 252.256 103.374 250.183 103.374C247.776 103.374 246.307 104.922 246.307 107.344V112.784H245.33V102.572H246.267V104.779C246.95 103.35 248.38 102.492 250.318 102.492C252.804 102.492 254.464 103.961 254.464 106.812Z" fill="#606060"/>
<path d="M265.901 112.133C265.393 112.625 264.575 112.855 263.804 112.855C262.001 112.855 261.024 111.799 261.024 110.076V103.405H259.15V102.564H261.024V100.332H262.001V102.564H265.25V103.405H262.001V109.981C262.001 111.291 262.645 112.014 263.9 112.014C264.503 112.014 265.075 111.815 265.48 111.45L265.893 112.133H265.901Z" fill="#606060"/>
<path d="M269.484 107.669C269.484 104.636 271.652 102.484 274.591 102.484C277.529 102.484 279.698 104.636 279.698 107.669C279.698 110.703 277.529 112.855 274.591 112.855C271.652 112.855 269.484 110.703 269.484 107.669ZM278.697 107.669C278.697 105.104 276.934 103.365 274.591 103.365C272.248 103.365 270.484 105.104 270.484 107.669C270.484 110.235 272.248 111.974 274.591 111.974C276.934 111.974 278.697 110.235 278.697 107.669Z" fill="#606060"/>
<path d="M283.566 111.545L284.018 110.759C284.805 111.426 286.187 111.99 287.696 111.99C289.848 111.99 290.706 111.228 290.706 110.076C290.706 107.106 283.939 109.29 283.939 105.287C283.939 103.739 285.226 102.492 287.815 102.492C289.102 102.492 290.515 102.881 291.318 103.493L290.865 104.279C290.007 103.652 288.887 103.358 287.791 103.358C285.798 103.358 284.916 104.176 284.916 105.272C284.916 108.345 291.683 106.169 291.683 110.06C291.683 111.72 290.253 112.855 287.656 112.855C285.972 112.855 284.368 112.292 283.566 111.545Z" fill="#606060"/>
<path d="M313.08 102.563V112.776H312.143V110.584C311.476 112.013 310.086 112.855 308.291 112.855C305.686 112.855 304.026 111.386 304.026 108.535V102.571H305.003V108.456C305.003 110.767 306.234 111.974 308.37 111.974C310.682 111.974 312.104 110.425 312.104 108.003V102.563H313.08ZM308.506 100.904H307.449L310.166 98.5928H311.571L308.498 100.904H308.506Z" fill="#606060"/>
<path d="M328.712 106.812V112.776H327.735V106.892C327.735 104.581 326.504 103.374 324.431 103.374C322.024 103.374 320.555 104.922 320.555 107.344V112.784H319.578V102.572H320.515V104.779C321.198 103.35 322.628 102.492 324.566 102.492C327.052 102.492 328.712 103.961 328.712 106.812Z" fill="#606060"/>
<path d="M334.772 99.2996C334.772 98.8708 335.121 98.4976 335.574 98.4976C336.027 98.4976 336.376 98.847 336.376 99.2837C336.376 99.7205 336.027 100.086 335.574 100.086C335.121 100.086 334.772 99.7364 334.772 99.2996ZM335.081 102.563H336.058V112.776H335.081V102.563Z" fill="#606060"/>
<path d="M341.42 107.669C341.42 104.62 343.588 102.484 346.583 102.484C348.203 102.484 349.617 103.111 350.459 104.358L349.736 104.89C348.989 103.85 347.861 103.365 346.583 103.365C344.176 103.365 342.413 105.089 342.413 107.669C342.413 110.25 344.176 111.974 346.583 111.974C347.853 111.974 348.989 111.481 349.736 110.449L350.459 110.981C349.617 112.212 348.211 112.855 346.583 112.855C343.588 112.855 341.42 110.703 341.42 107.669Z" fill="#606060"/>
<path d="M354.446 107.669C354.446 104.636 356.614 102.484 359.553 102.484C362.492 102.484 364.66 104.636 364.66 107.669C364.66 110.703 362.492 112.855 359.553 112.855C356.614 112.855 354.446 110.703 354.446 107.669ZM363.659 107.669C363.659 105.104 361.896 103.365 359.553 103.365C357.21 103.365 355.446 105.104 355.446 107.669C355.446 110.235 357.21 111.974 359.553 111.974C361.896 111.974 363.659 110.235 363.659 107.669Z" fill="#606060"/>
<path d="M368.528 111.545L368.981 110.759C369.767 111.426 371.149 111.99 372.658 111.99C374.81 111.99 375.668 111.228 375.668 110.076C375.668 107.106 368.901 109.29 368.901 105.287C368.901 103.739 370.188 102.492 372.777 102.492C374.064 102.492 375.478 102.881 376.28 103.493L375.827 104.279C374.969 103.652 373.849 103.358 372.753 103.358C370.76 103.358 369.878 104.176 369.878 105.272C369.878 108.345 376.645 106.169 376.645 110.06C376.645 111.72 375.216 112.855 372.618 112.855C370.934 112.855 369.33 112.292 368.528 111.545Z" fill="#606060"/>
<path d="M382.436 112.014C382.436 112.308 382.38 112.506 382.261 112.911L381.498 115.571H380.792L381.435 112.816C381.046 112.721 380.792 112.427 380.792 112.014C380.792 111.545 381.141 111.196 381.61 111.196C382.078 111.196 382.428 111.585 382.428 112.014H382.436Z" fill="#606060"/>
<path d="M393.857 111.545L394.31 110.759C395.096 111.426 396.478 111.99 397.987 111.99C400.14 111.99 400.997 111.228 400.997 110.076C400.997 107.106 394.23 109.29 394.23 105.287C394.23 103.739 395.517 102.492 398.106 102.492C399.393 102.492 400.807 102.881 401.609 103.493L401.156 104.279C400.298 103.652 399.179 103.358 398.082 103.358C396.089 103.358 395.207 104.176 395.207 105.272C395.207 108.345 401.974 106.169 401.974 110.06C401.974 111.72 400.545 112.855 397.947 112.855C396.264 112.855 394.659 112.292 393.857 111.545Z" fill="#606060"/>
<path d="M405.946 107.67C405.946 104.636 408.114 102.484 411.053 102.484C413.992 102.484 416.16 104.636 416.16 107.67C416.16 110.703 413.992 112.855 411.053 112.855C408.114 112.855 405.946 110.703 405.946 107.67ZM415.159 107.67C415.159 105.105 413.396 103.365 411.053 103.365C408.71 103.365 406.947 105.105 406.947 107.67C406.947 110.235 408.71 111.974 411.053 111.974C413.396 111.974 415.159 110.235 415.159 107.67ZM412.657 98.5928H414.063L410.989 100.904H409.933L412.649 98.5928H412.657Z" fill="#606060"/>
<path d="M439.082 107.67C439.082 110.743 436.914 112.855 434.039 112.855C432.236 112.855 430.711 111.974 429.893 110.449V116.572H428.916V102.572H429.853V104.978C430.655 103.413 432.204 102.492 434.039 102.492C436.914 102.492 439.082 104.62 439.082 107.678V107.67ZM438.106 107.67C438.106 105.105 436.326 103.366 433.975 103.366C431.624 103.366 429.869 105.105 429.869 107.67C429.869 110.235 431.632 111.974 433.975 111.974C436.318 111.974 438.106 110.235 438.106 107.67Z" fill="#606060"/>
<path d="M451.799 106.304V112.776H450.861V110.957C450.218 112.132 448.963 112.855 447.184 112.855C444.897 112.855 443.507 111.68 443.507 109.941C443.507 108.392 444.484 107.082 447.319 107.082H450.822V106.264C450.822 104.366 449.781 103.349 447.788 103.349C446.382 103.349 445.111 103.874 444.269 104.636L443.777 103.929C444.793 103.032 446.279 102.484 447.867 102.484C450.393 102.484 451.799 103.77 451.799 106.296V106.304ZM450.814 109.766V107.852H447.335C445.222 107.852 444.476 108.734 444.476 109.909C444.476 111.235 445.508 112.061 447.311 112.061C449.114 112.061 450.226 111.243 450.814 109.774V109.766Z" fill="#606060"/>
<path d="M462.998 102.484V103.444C462.918 103.444 462.839 103.421 462.767 103.421C460.496 103.421 459.145 104.929 459.145 107.447V112.767H458.168V102.555H459.106V104.786C459.733 103.301 461.083 102.476 462.998 102.476V102.484Z" fill="#606060"/>
<path d="M475.42 106.304V112.776H474.483V110.957C473.839 112.132 472.584 112.855 470.805 112.855C468.518 112.855 467.128 111.68 467.128 109.941C467.128 108.392 468.105 107.082 470.94 107.082H474.443V106.264C474.443 104.366 473.402 103.349 471.409 103.349C470.003 103.349 468.732 103.874 467.89 104.636L467.398 103.929C468.415 103.032 469.9 102.484 471.488 102.484C474.014 102.484 475.42 103.77 475.42 106.296V106.304ZM474.443 109.766V107.852H470.964C468.851 107.852 468.105 108.734 468.105 109.909C468.105 111.235 469.137 112.061 470.94 112.061C472.743 112.061 473.855 111.243 474.443 109.774V109.766Z" fill="#606060"/>
<path d="M497.366 102.563L492.751 112.775H491.75L487.151 102.563H488.184L492.251 111.695L496.357 102.563H497.358H497.366Z" fill="#606060"/>
<path d="M500.439 107.669C500.439 104.636 502.608 102.484 505.546 102.484C508.485 102.484 510.653 104.636 510.653 107.669C510.653 110.703 508.485 112.855 505.546 112.855C502.608 112.855 500.439 110.703 500.439 107.669ZM509.653 107.669C509.653 105.104 507.889 103.365 505.546 103.365C503.203 103.365 501.44 105.104 501.44 107.669C501.44 110.235 503.203 111.974 505.546 111.974C507.889 111.974 509.653 110.235 509.653 107.669Z" fill="#606060"/>
<path d="M514.911 107.669C514.911 104.62 517.079 102.484 520.074 102.484C521.694 102.484 523.108 103.111 523.95 104.358L523.227 104.89C522.48 103.85 521.352 103.365 520.074 103.365C517.667 103.365 515.904 105.089 515.904 107.669C515.904 110.25 517.667 111.974 520.074 111.974C521.344 111.974 522.48 111.481 523.227 110.449L523.95 110.981C523.108 112.212 521.702 112.855 520.074 112.855C517.079 112.855 514.911 110.703 514.911 107.669Z" fill="#606060"/>
<path d="M537.682 107.908H528.898C528.993 110.33 530.772 111.974 533.219 111.974C534.505 111.974 535.705 111.505 536.483 110.544L537.047 111.188C536.149 112.283 534.736 112.847 533.195 112.847C530.105 112.847 527.937 110.695 527.937 107.662C527.937 104.628 530.026 102.476 532.829 102.476C535.633 102.476 537.698 104.588 537.698 107.622C537.698 107.701 537.682 107.797 537.682 107.9V107.908ZM528.914 107.145H536.737C536.602 104.938 534.998 103.35 532.821 103.35C530.645 103.35 529.065 104.914 528.914 107.145ZM530.796 100.904H529.819L532.281 98.5928H533.377L535.84 100.904H534.863L532.829 99.2042L530.796 100.904Z" fill="#606060"/>
<path d="M257.172 39.8584H267.259L285.654 82.463H274.995L257.172 39.8584Z" fill="white"/>
<path d="M448.724 39.7165L459.264 39.6768L477.175 82.464H466.516L448.724 39.7165Z" fill="white"/>
</svg>
